<svg xmlns="http://www.w3.org/2000/svg" xmlns:xlink="http://www.w3.org/1999/xlink" width="180.682" height="57.045" viewBox="0 0 180.682 57.045">
  <defs>
    <linearGradient id="linear-gradient" x1="0.705" y1="0.518" x2="0.603" gradientUnits="objectBoundingBox">
      <stop offset="0" stop-color="#fefefe"/>
      <stop offset="1" stop-color="#b8b8b8"/>
    </linearGradient>
    <linearGradient id="linear-gradient-2" x1="0.459" y1="0.5" x2="0.5" y2="-0.196" gradientUnits="objectBoundingBox">
      <stop offset="0" stop-color="#fff"/>
      <stop offset="1" stop-color="#b4b4b4"/>
    </linearGradient>
    <linearGradient id="linear-gradient-3" x1="-0.207" y1="0.221" x2="0.356" y2="0.659" gradientUnits="objectBoundingBox">
      <stop offset="0" stop-color="#b7b7b7"/>
      <stop offset="1" stop-color="#5c5c5c"/>
    </linearGradient>
    <linearGradient id="linear-gradient-4" x1="-0.286" y1="0.446" x2="1.502" y2="0.486" xlink:href="#linear-gradient-3"/>
  </defs>
  <g id="Component_6_1" data-name="Component 6 – 1" transform="translate(-28.012 -20.5)">
    <rect id="Rectangle_2" data-name="Rectangle 2" width="180" height="45" transform="translate(28.694 29)" fill="none"/>
    <path id="Rectangle_1" data-name="Rectangle 1" d="M20.159,0H200V3H20.159Z" transform="translate(8.694 59)" fill="#d52751"/>
    <text id="rderForSure" transform="translate(90.694 57)" fill="#fff" font-size="20" font-family="Georgia-Italic, Georgia" font-style="italic"><tspan x="0" y="0">rderForSure</tspan></text>
    <circle id="Ellipse_1" data-name="Ellipse 1" cx="25.5" cy="25.5" r="25.5" transform="translate(36.694 21)" stroke="#cfcfcf" stroke-width="1" fill="url(#linear-gradient)"/>
    <g id="Ellipse_2" data-name="Ellipse 2" transform="translate(45.694 30)" stroke="#d1cece" stroke-width="1" fill="url(#linear-gradient-2)">
      <circle cx="16.5" cy="16.5" r="16.5" stroke="none"/>
      <circle cx="16.5" cy="16.5" r="16" fill="none"/>
    </g>
    <g id="Path_21" data-name="Path 21" transform="matrix(0.799, -0.602, 0.602, 0.799, 25.673, 53.665)">
      <path id="Path_39" data-name="Path 39" d="M14.365,38.649h-.071a1.989,1.989,0,0,1-2.1-1.77,22.851,22.851,0,0,1-.187-5.457q.019-.6.037-1.247c.043-1.609.155-4.162.274-6.866.14-3.193.3-6.812.376-9.6.139-5.033-.023-5.132-.344-5.328C11.191,7.672,9.95,6.4,9.972,5.3c.022-1.212.018-2.49.015-3.727-.006-1.974-.011-3.839.084-5.3a6.946,6.946,0,0,1,.391-2.3A9.942,9.942,0,0,1,10.906-3.3c.117,1.529.146,3.261.168,4.526.008.478.015.89.025,1.178.016.435.033.929.544.929h.081l.078-.026c.356-.119.371-.435.4-.959.015-.319.029-.769.044-1.291.037-1.252.089-2.966.21-4.449A13.875,13.875,0,0,1,12.8-5.829a14.742,14.742,0,0,1,.477,2.659c.184,1.583.3,3.4.376,4.6.027.425.05.791.07,1.045.011.141.02.24.029.313.061.488.384.541.52.541h.008c.483-.007.51-.454.534-.848.015-.245.031-.6.05-1.01.055-1.2.138-3.021.3-4.617a13.327,13.327,0,0,1,.468-2.74,12.779,12.779,0,0,1,.391,2.563c.128,1.517.178,3.243.215,4.5.014.491.027.914.041,1.211.022.461.044.937.549.937h.085L17,3.3c.348-.122.361-.421.381-.917.012-.293.022-.709.033-1.191.03-1.262.07-2.991.193-4.512a12.627,12.627,0,0,1,.382-2.531A26.206,26.206,0,0,1,18.459-.2c.05,2.528-.006,4.966-.016,5.387a6.237,6.237,0,0,1-2.529,3.2c-.315.2-.613.394-.389,5.5.123,2.8.369,6.312.586,9.406.211,3,.393,5.6.4,6.617,0,.354.008.746.016,1.16.044,2.355.111,5.915-1.1,7.146a1.411,1.411,0,0,1-1.062.433Z" transform="translate(-0.995 -2.002)" fill="url(#linear-gradient-3)"/>
    </g>
    <g id="Path_22" data-name="Path 22" transform="translate(64.634 56.991) rotate(39)">
      <path id="Path_41" data-name="Path 41" d="M11.883,14.183a4.1,4.1,0,0,1-1.828-2.932,23.25,23.25,0,0,1-.262-4.743c.009-.891.018-1.812-.024-2.673C9.69,2.2,9.593-1.291,9.5-5.225c-.121-5.131-.223-10.9-.208-11.461.039-1.448-.124-3.927-.3-6.55-.161-2.441-.327-4.965-.361-7.021-.045-2.719.18-3.465.282-3.663.481.084,1.376.945,2.308,2.726A22.094,22.094,0,0,1,13.4-24.049a95.721,95.721,0,0,1,.843,9.554c.106,4.8-.683,5.208-.774,5.239-1.032.351-1.417,1.936-1.213,4.986a39.355,39.355,0,0,0,.509,4.054c.018.143.2,1.63.687,7.014.355,3.911.186,5.961-.565,6.854A1.52,1.52,0,0,1,11.883,14.183Z" fill="url(#linear-gradient-4)"/>
    </g>
  </g>
</svg>
